<svg width="42" height="42" viewBox="0 0 42 42" fill="none" xmlns="http://www.w3.org/2000/svg">
<g clip-path="url(#clip0_766_987)">
<path d="M0 21C0 9.40202 9.40202 0 21 0C32.598 0 42 9.40202 42 21C42 32.598 32.598 42 21 42C9.40202 42 0 32.598 0 21Z" fill="white"/>
<path d="M12.25 24.5H8.75V33.25H17.5V29.75H12.25V24.5ZM8.75 17.5H12.25V12.25H17.5V8.75H8.75V17.5ZM29.75 29.75H24.5V33.25H33.25V24.5H29.75V29.75ZM24.5 8.75V12.25H29.75V17.5H33.25V8.75H24.5Z" fill="black"/>
</g>
<defs>
<clipPath id="clip0_766_987">
<rect width="42" height="42" fill="white"/>
</clipPath>
</defs>
</svg>
