<svg width="1304" height="42" viewBox="0 0 1304 42" fill="none" xmlns="http://www.w3.org/2000/svg">
<g clip-path="url(#clip0_766_993)">
<path d="M1283 42C1271.4 42 1262 32.598 1262 21C1262 9.40202 1271.4 0 1283 0C1294.6 0 1304 9.40202 1304 21C1304 32.598 1294.6 42 1283 42Z" fill="white"/>
<path d="M1277.03 29.0325L1285.05 21L1277.03 12.9675L1279.5 10.5L1290 21L1279.5 31.5L1277.03 29.0325Z" fill="black"/>
</g>
<g clip-path="url(#clip1_766_993)">
<path d="M21 0C32.598 0 42 9.40202 42 21C42 32.598 32.598 42 21 42C9.40202 42 0 32.598 0 21C0 9.40202 9.40202 0 21 0Z" fill="white"/>
<path d="M26.9688 12.9675L18.9537 21L26.9688 29.0325L24.5013 31.5L14.0012 21L24.5013 10.5L26.9688 12.9675Z" fill="black"/>
</g>
<defs>
<clipPath id="clip0_766_993">
<rect width="42" height="42" fill="white" transform="matrix(0 -1 1 0 1262 42)"/>
</clipPath>
<clipPath id="clip1_766_993">
<rect width="42" height="42" fill="white" transform="matrix(0 1 -1 0 42 0)"/>
</clipPath>
</defs>
</svg>
