<svg width="424" height="42" viewBox="0 0 424 42" fill="none" xmlns="http://www.w3.org/2000/svg">
<g clip-path="url(#clip0_766_872)">
<path d="M397.031 29.0325L405.046 21L397.031 12.9675L399.499 10.5L409.999 21L399.499 31.5L397.031 29.0325Z" fill="black"/>
</g>
<circle cx="356" cy="21" r="11" fill="white" stroke="black" stroke-width="2"/>
<circle cx="308" cy="21" r="11" fill="white" stroke="black" stroke-width="2"/>
<circle cx="260" cy="21" r="11" fill="white" stroke="black" stroke-width="2"/>
<circle cx="212" cy="21" r="11" fill="white" stroke="black" stroke-width="2"/>
<circle cx="164" cy="21" r="11" fill="white" stroke="black" stroke-width="2"/>
<circle cx="116" cy="21" r="11" fill="white" stroke="black" stroke-width="2"/>
<circle cx="68" cy="21" r="11" fill="#701A99" stroke="black" stroke-width="2"/>
<g clip-path="url(#clip1_766_872)">
<path d="M26.9688 12.9675L18.9537 21L26.9688 29.0325L24.5013 31.5L14.0012 21L24.5013 10.5L26.9688 12.9675Z" fill="black"/>
</g>
<defs>
<clipPath id="clip0_766_872">
<rect width="42" height="42" fill="white" transform="matrix(0 -1 1 0 382 42)"/>
</clipPath>
<clipPath id="clip1_766_872">
<rect width="42" height="42" fill="white" transform="matrix(0 1 -1 0 42 0)"/>
</clipPath>
</defs>
</svg>
